<svg xmlns="http://www.w3.org/2000/svg" viewBox="0 0 32 32" width="32" height="32">
  <defs>
    <linearGradient id="robotGradient" x1="0%" y1="0%" x2="100%" y2="100%">
      <stop offset="0%" style="stop-color:#667eea;stop-opacity:1" />
      <stop offset="100%" style="stop-color:#764ba2;stop-opacity:1" />
    </linearGradient>
    <linearGradient id="eyeGradient" x1="0%" y1="0%" x2="100%" y2="100%">
      <stop offset="0%" style="stop-color:#00d4ff;stop-opacity:1" />
      <stop offset="100%" style="stop-color:#0077ff;stop-opacity:1" />
    </linearGradient>
  </defs>
  
  <!-- Robot Head -->
  <rect x="4" y="6" width="24" height="20" rx="4" ry="4" fill="url(#robotGradient)" stroke="#333" stroke-width="0.5"/>
  
  <!-- Robot Eyes -->
  <circle cx="12" cy="14" r="3" fill="url(#eyeGradient)"/>
  <circle cx="20" cy="14" r="3" fill="url(#eyeGradient)"/>
  
  <!-- Eye Pupils -->
  <circle cx="12" cy="14" r="1.5" fill="#001122"/>
  <circle cx="20" cy="14" r="1.5" fill="#001122"/>
  
  <!-- Eye Glints -->
  <circle cx="12.5" cy="13.5" r="0.5" fill="#ffffff"/>
  <circle cx="20.5" cy="13.5" r="0.5" fill="#ffffff"/>
  
  <!-- Robot Mouth -->
  <rect x="10" y="20" width="12" height="2" rx="1" ry="1" fill="#333"/>
  
  <!-- Robot Antenna -->
  <line x1="16" y1="6" x2="16" y2="3" stroke="#333" stroke-width="1"/>
  <circle cx="16" cy="2" r="1.5" fill="#ff6b6b"/>
  
  <!-- Robot Ears -->
  <rect x="2" y="12" width="2" height="4" rx="1" ry="1" fill="url(#robotGradient)" stroke="#333" stroke-width="0.5"/>
  <rect x="28" y="12" width="2" height="4" rx="1" ry="1" fill="url(#robotGradient)" stroke="#333" stroke-width="0.5"/>
  
  <!-- Robot Body (partial) -->
  <rect x="8" y="26" width="16" height="4" rx="2" ry="2" fill="url(#robotGradient)" stroke="#333" stroke-width="0.5"/>
  
  <!-- Body Details -->
  <rect x="12" y="27" width="2" height="2" rx="0.5" ry="0.5" fill="#333"/>
  <rect x="18" y="27" width="2" height="2" rx="0.5" ry="0.5" fill="#333"/>
</svg>
